<?xml version="1.0" encoding="UTF-8"?>
<svg xmlns="http://www.w3.org/2000/svg" xmlns:xlink="http://www.w3.org/1999/xlink" width="30px" height="30px" viewBox="0 0 30 30" version="1.1">
<g id="surface1">
<path style=" stroke:none;fill-rule:nonzero;fill:rgb(6.27451%,9.411765%,12.54902%);fill-opacity:1;" d="M 9.375 18.75 C 8.921875 18.761719 8.527344 18.441406 8.4375 18 L 6.246094 6.949219 C 5.980469 5.632812 4.824219 4.6875 3.488281 4.6875 L 1.875 4.6875 C 1.359375 4.6875 0.9375 4.265625 0.9375 3.75 C 0.9375 3.234375 1.359375 2.8125 1.875 2.8125 L 3.488281 2.8125 C 5.714844 2.8125 7.632812 4.378906 8.082031 6.5625 L 10.3125 17.625 C 10.367188 17.875 10.320312 18.136719 10.179688 18.347656 C 10.035156 18.558594 9.8125 18.707031 9.5625 18.75 Z M 9.375 18.75 "/>
<path style=" stroke:none;fill-rule:nonzero;fill:rgb(6.27451%,9.411765%,12.54902%);fill-opacity:1;" d="M 10.3125 25.3125 L 8.570312 25.3125 C 6.503906 25.296875 4.8125 23.671875 4.714844 21.609375 C 4.621094 19.546875 6.160156 17.769531 8.214844 17.566406 L 25.472656 16.003906 L 26.980469 8.4375 L 7.5 8.4375 C 6.984375 8.4375 6.5625 8.015625 6.5625 7.5 C 6.5625 6.984375 6.984375 6.5625 7.5 6.5625 L 28.125 6.5625 C 28.402344 6.566406 28.667969 6.691406 28.84375 6.910156 C 29.03125 7.125 29.109375 7.410156 29.0625 7.6875 L 27.1875 17.0625 C 27.105469 17.472656 26.765625 17.773438 26.351562 17.8125 L 8.382812 19.441406 C 7.28125 19.496094 6.425781 20.433594 6.480469 21.535156 C 6.53125 22.636719 7.464844 23.488281 8.570312 23.4375 L 10.3125 23.4375 C 10.828125 23.4375 11.25 23.859375 11.25 24.375 C 11.25 24.890625 10.828125 25.3125 10.3125 25.3125 Z M 10.3125 25.3125 "/>
<path style=" stroke:none;fill-rule:nonzero;fill:rgb(6.27451%,9.411765%,12.54902%);fill-opacity:1;" d="M 24.375 28.125 C 22.304688 28.125 20.625 26.445312 20.625 24.375 C 20.625 22.304688 22.304688 20.625 24.375 20.625 C 26.445312 20.625 28.125 22.304688 28.125 24.375 C 28.125 26.445312 26.445312 28.125 24.375 28.125 Z M 24.375 22.5 C 23.339844 22.5 22.5 23.339844 22.5 24.375 C 22.5 25.410156 23.339844 26.25 24.375 26.25 C 25.410156 26.25 26.25 25.410156 26.25 24.375 C 26.25 23.339844 25.410156 22.5 24.375 22.5 Z M 24.375 22.5 "/>
<path style=" stroke:none;fill-rule:nonzero;fill:rgb(6.27451%,9.411765%,12.54902%);fill-opacity:1;" d="M 13.125 28.125 C 11.054688 28.125 9.375 26.445312 9.375 24.375 C 9.375 22.304688 11.054688 20.625 13.125 20.625 C 15.195312 20.625 16.875 22.304688 16.875 24.375 C 16.875 26.445312 15.195312 28.125 13.125 28.125 Z M 13.125 22.5 C 12.089844 22.5 11.25 23.339844 11.25 24.375 C 11.25 25.410156 12.089844 26.25 13.125 26.25 C 14.160156 26.25 15 25.410156 15 24.375 C 15 23.339844 14.160156 22.5 13.125 22.5 Z M 13.125 22.5 "/>
<path style=" stroke:none;fill-rule:nonzero;fill:rgb(6.27451%,9.411765%,12.54902%);fill-opacity:1;" d="M 21.5625 25.3125 L 15.9375 25.3125 C 15.421875 25.3125 15 24.890625 15 24.375 C 15 23.859375 15.421875 23.4375 15.9375 23.4375 L 21.5625 23.4375 C 22.078125 23.4375 22.5 23.859375 22.5 24.375 C 22.5 24.890625 22.078125 25.3125 21.5625 25.3125 Z M 21.5625 25.3125 "/>
</g>
</svg>
