<?xml version="1.0" encoding="UTF-8"?>
<svg xmlns="http://www.w3.org/2000/svg" xmlns:xlink="http://www.w3.org/1999/xlink" width="30px" height="30px" viewBox="0 0 30 30" version="1.1">
<g id="surface1">
<path style=" stroke:none;fill-rule:nonzero;fill:rgb(0%,0%,0%);fill-opacity:1;" d="M 15 3.75 C 11.902344 3.75 9.375 6.277344 9.375 9.375 C 9.375 12.472656 11.902344 15 15 15 C 18.097656 15 20.625 12.472656 20.625 9.375 C 20.625 6.277344 18.097656 3.75 15 3.75 Z M 15 15 C 9.835938 15 5.625 19.210938 5.625 24.375 L 7.5 24.375 C 7.5 20.222656 10.847656 16.875 15 16.875 C 19.152344 16.875 22.5 20.222656 22.5 24.375 L 24.375 24.375 C 24.375 19.210938 20.164062 15 15 15 Z M 15 5.625 C 17.078125 5.625 18.75 7.292969 18.75 9.375 C 18.75 11.453125 17.078125 13.125 15 13.125 C 12.921875 13.125 11.25 11.453125 11.25 9.375 C 11.25 7.292969 12.921875 5.625 15 5.625 Z M 15 5.625 "/>
</g>
</svg>
